<?xml version="1.0" encoding="utf-8"?>
<!-- Generator: Adobe Illustrator 16.0.4, SVG Export Plug-In . SVG Version: 6.00 Build 0)  -->
<!DOCTYPE svg PUBLIC "-//W3C//DTD SVG 1.1//EN" "http://www.w3.org/Graphics/SVG/1.1/DTD/svg11.dtd">
<svg version="1.1" id="Layer_1" xmlns="http://www.w3.org/2000/svg" xmlns:xlink="http://www.w3.org/1999/xlink" x="0px" y="0px"
	 width="280px" height="232px" viewBox="0 0 280 232" enable-background="new 0 0 280 232" xml:space="preserve">
<g>
	<path fill="#7F776C" d="M7,115.871v50.764c0,9.461,7.106,17.25,16.27,18.353v-87.47C14.106,98.621,7,106.41,7,115.871z"/>
	<path fill="#7F776C" d="M257.674,97.483v87.54c9.275-0.998,16.5-8.847,16.5-18.388v-50.764
		C274.174,106.33,266.949,98.48,257.674,97.483z"/>
	<path fill="none" d="M182.148,71.247c-0.309-0.844-0.486-1.75-0.492-2.7h-81.209c-0.062,0.955-0.286,1.865-0.654,2.7H182.148z"/>
	<path fill="none" d="M234.472,71.247c10.605,0,19.202,8.598,19.202,19.202v7.034c0.657-0.071,1.324-0.112,2-0.112
		s1.343,0.042,2,0.112v-9.055c0-10.979-8.9-19.88-19.881-19.88h-28.641c-0.006,0.949-0.184,1.856-0.492,2.7H234.472z"/>
	<path fill="none" d="M27.27,97.46v-7.011c0-10.604,8.597-19.202,19.203-19.202h27.181c-0.368-0.835-0.592-1.745-0.654-2.7H43.151
		c-10.98,0-19.881,8.901-19.881,19.88v9.09c0.732-0.088,1.474-0.147,2.23-0.147C26.098,97.371,26.687,97.404,27.27,97.46z"/>
	<path fill="none" d="M253.674,185.022v19.831c0,10.605-8.597,19.202-19.202,19.202H46.473c-10.605,0-19.203-8.597-19.203-19.202
		v-19.809c-0.583,0.056-1.172,0.09-1.77,0.09c-0.756,0-1.498-0.059-2.23-0.147v21.888c0,10.98,8.901,19.881,19.881,19.881h194.642
		c10.98,0,19.881-8.9,19.881-19.881v-21.853c-0.657,0.071-1.324,0.112-2,0.112S254.331,185.094,253.674,185.022z"/>
	<path fill="none" d="M27.27,185.045V97.46c-0.583-0.056-1.172-0.089-1.77-0.089c-0.756,0-1.498,0.059-2.23,0.147v87.47
		c0.732,0.089,1.474,0.147,2.23,0.147C26.098,185.135,26.687,185.101,27.27,185.045z"/>
	<path fill="none" d="M255.674,97.371c-0.676,0-1.343,0.042-2,0.112v87.54c0.657,0.071,1.324,0.112,2,0.112s1.343-0.041,2-0.112
		v-87.54C257.017,97.412,256.35,97.371,255.674,97.371z"/>
	<circle fill="#7F776C" cx="86.696" cy="119.28" r="16.367"/>
	<circle fill="#7F776C" cx="195.404" cy="119.28" r="16.367"/>
	<path fill="#7F776C" d="M100.474,67.026c0-4.418-3.582-8-8-8h-1.282V38.171c7.279-1.978,12.64-8.614,12.64-16.519
		c0-9.463-7.671-17.135-17.135-17.135s-17.135,7.671-17.135,17.135c0,7.906,5.361,14.542,12.641,16.519v20.855h-1.229
		c-4.418,0-8,3.582-8,8c0,0.176,0.015,0.348,0.026,0.521h27.447C100.458,67.375,100.474,67.202,100.474,67.026z"/>
	<path fill="none" d="M99.793,71.247c0.368-0.835,0.592-1.745,0.654-2.7H73c0.062,0.955,0.286,1.865,0.654,2.7H99.793z"/>
	<path fill="#7F776C" d="M209.154,67.5c0-4.418-3.582-8-8-8h-1.255V38.17c7.279-1.977,12.64-8.613,12.64-16.519
		c0-9.463-7.672-17.135-17.135-17.135c-9.464,0-17.135,7.671-17.135,17.135c0,7.906,5.36,14.542,12.641,16.519V59.5h-1.256
		c-4.418,0-8,3.582-8,8c0,0.016,0.002,0.031,0.002,0.047h27.496C209.152,67.531,209.154,67.516,209.154,67.5z"/>
	<path fill="none" d="M208.66,71.247c0.309-0.844,0.486-1.75,0.492-2.7h-27.496c0.006,0.949,0.184,1.856,0.492,2.7H208.66z"/>
	<path fill="#7F776C" d="M234.472,71.247H208.66h-26.512H99.793h-26.14H46.473c-10.605,0-19.203,8.598-19.203,19.202v7.011v87.585
		v19.809c0,10.605,8.597,19.202,19.203,19.202h187.999c10.605,0,19.202-8.597,19.202-19.202v-19.831v-87.54v-7.034
		C253.674,79.845,245.077,71.247,234.472,71.247z M195.404,97.652c12.101,0,21.91,9.81,21.91,21.91c0,12.101-9.81,21.91-21.91,21.91
		c-12.1,0-21.91-9.81-21.91-21.91C173.494,107.461,183.305,97.652,195.404,97.652z M86.696,97.371c12.101,0,21.91,9.81,21.91,21.91
		c0,12.101-9.81,21.91-21.91,21.91c-12.1,0-21.91-9.81-21.91-21.91C64.787,107.18,74.596,97.371,86.696,97.371z M203.955,200.022
		H76.989c-8.222,0-14.888-6.665-14.888-14.888s6.666-14.888,14.888-14.888h126.966c8.223,0,14.888,6.665,14.888,14.888
		S212.178,200.022,203.955,200.022z"/>
	<path fill="none" d="M86.696,141.19c12.101,0,21.91-9.81,21.91-21.91c0-12.1-9.81-21.91-21.91-21.91
		c-12.1,0-21.91,9.81-21.91,21.91C64.787,131.381,74.596,141.19,86.696,141.19z M86.696,102.913c9.04,0,16.368,7.328,16.368,16.367
		c0,9.04-7.328,16.367-16.368,16.367c-9.039,0-16.367-7.327-16.367-16.367C70.329,110.241,77.657,102.913,86.696,102.913z"/>
	<path fill="none" d="M195.404,141.472c12.101,0,21.91-9.81,21.91-21.91c0-12.1-9.81-21.91-21.91-21.91
		c-12.1,0-21.91,9.81-21.91,21.91C173.494,131.662,183.305,141.472,195.404,141.472z M195.404,102.913
		c9.039,0,16.367,7.328,16.367,16.367c0,9.04-7.328,16.367-16.367,16.367s-16.367-7.327-16.367-16.367
		C179.037,110.241,186.365,102.913,195.404,102.913z"/>
	<path fill="none" d="M203.955,170.247H76.989c-8.222,0-14.888,6.665-14.888,14.888s6.666,14.888,14.888,14.888h126.966
		c8.223,0,14.888-6.665,14.888-14.888S212.178,170.247,203.955,170.247z M91.218,197.667h-9.044v-25.002h9.044V197.667z
		 M118.396,197.667h-9.045v-25.002h9.045V197.667z M145.572,197.667h-9.044v-25.002h9.044V197.667z M172.749,197.667h-9.044v-25.002
		h9.044V197.667z M199.926,197.667h-9.044v-25.002h9.044V197.667z"/>
	<rect x="82.174" y="172.665" fill="#7F776C" width="9.044" height="25.002"/>
	<rect x="109.351" y="172.665" fill="#7F776C" width="9.045" height="25.002"/>
	<rect x="136.528" y="172.665" fill="#7F776C" width="9.044" height="25.002"/>
	<rect x="163.705" y="172.665" fill="#7F776C" width="9.044" height="25.002"/>
	<rect x="190.882" y="172.665" fill="#7F776C" width="9.044" height="25.002"/>
</g>
</svg>
