<?xml version="1.0" encoding="utf-8"?>
<!-- Generator: Adobe Illustrator 16.0.4, SVG Export Plug-In . SVG Version: 6.00 Build 0)  -->
<!DOCTYPE svg PUBLIC "-//W3C//DTD SVG 1.1//EN" "http://www.w3.org/Graphics/SVG/1.1/DTD/svg11.dtd">
<svg version="1.1" id="Layer_1" xmlns="http://www.w3.org/2000/svg" xmlns:xlink="http://www.w3.org/1999/xlink" x="0px" y="0px"
	 width="280px" height="232px" viewBox="0 0 280 232" enable-background="new 0 0 280 232" xml:space="preserve">
<path fill="#E34137" d="M46,166.635c0,10.217-8.283,18.5-18.5,18.5l0,0c-10.217,0-18.5-8.283-18.5-18.5v-50.764
	c0-10.218,8.283-18.5,18.5-18.5l0,0c10.217,0,18.5,8.283,18.5,18.5V166.635z"/>
<path fill="#E34137" d="M272.174,166.635c0,10.217-8.283,18.5-18.5,18.5l0,0c-10.217,0-18.5-8.283-18.5-18.5v-50.764
	c0-10.218,8.283-18.5,18.5-18.5l0,0c10.217,0,18.5,8.283,18.5,18.5V166.635z"/>
<rect x="190.91" y="33.607" fill="#4A2911" width="8.989" height="52.247"/>
<rect x="82.202" y="33.607" fill="#4A2911" width="8.989" height="52.247"/>
<path fill="#1B8278" d="M100.474,71.026c0,4.418-3.582,8-8,8h-11.5c-4.418,0-8-3.582-8-8l0,0c0-4.418,3.582-8,8-8h11.5
	C96.892,63.026,100.474,66.608,100.474,71.026L100.474,71.026z"/>
<path fill="#1B8278" d="M209.154,71.5c0,4.418-3.582,8-8,8h-11.5c-4.418,0-8-3.582-8-8l0,0c0-4.418,3.582-8,8-8h11.5
	C205.572,63.5,209.154,67.082,209.154,71.5L209.154,71.5z"/>
<path fill="#54BDBC" d="M253.674,204.854c0,10.605-8.597,19.202-19.202,19.202H46.473c-10.605,0-19.203-8.597-19.203-19.202V90.449
	c0-10.604,8.597-19.202,19.203-19.202h187.999c10.605,0,19.202,8.598,19.202,19.202V204.854z"/>
<circle fill="#F18127" cx="86.696" cy="22.652" r="17.135"/>
<circle fill="#F18127" cx="195.404" cy="22.652" r="17.135"/>
<circle fill="#FFFFFF" cx="86.697" cy="119.28" r="21.91"/>
<circle fill="#FFFFFF" cx="195.404" cy="119.562" r="21.91"/>
<circle fill="#4A2911" cx="86.697" cy="119.28" r="16.367"/>
<circle fill="#4A2911" cx="195.404" cy="119.28" r="16.367"/>
<path fill="#1B8278" stroke="#482914" stroke-width="4" stroke-miterlimit="10" d="M218.843,185.135
	c0,8.223-6.665,14.888-14.888,14.888H76.989c-8.222,0-14.888-6.665-14.888-14.888l0,0c0-8.223,6.666-14.888,14.888-14.888h126.966
	C212.178,170.247,218.843,176.912,218.843,185.135L218.843,185.135z"/>
<rect x="82.174" y="172.665" fill="#F4F2F3" width="9.044" height="25.002"/>
<rect x="109.351" y="172.665" fill="#F4F2F3" width="9.045" height="25.002"/>
<rect x="136.528" y="172.665" fill="#F4F2F3" width="9.044" height="25.002"/>
<rect x="163.705" y="172.665" fill="#F4F2F3" width="9.044" height="25.002"/>
<rect x="190.882" y="172.665" fill="#F4F2F3" width="9.044" height="25.002"/>
</svg>
